<svg enable-background="new 0 0 150 150" viewBox="0 0 150 150" xmlns="http://www.w3.org/2000/svg"><path d="m45.4 106.5c-5.3-8.1-10.5-21.2-10.5-21.2s-2.3 14.1 5.4 24c7.8 9.9 19.6 11.7 19.6 11.7s-9.1-6.5-14.5-14.5z" fill="none"/><path d="m96.3 32c5.6-6.9 9.5-16.4 8.4-25.9-8.1.3-18 5.4-23.8 12.3-5.2 6.1-9.8 15.8-8.6 25.1 9.1.7 18.3-4.7 24-11.5z" fill="#569a44"/><path d="m131.8 68.3c-.6-1.3-1-2-1-2-.4 8.2-2.2 15.2-4.6 21-7.5 18.1-21.4 25.8-21.4 25.8 1.6-2.1 3.2-5.8 4.6-9.6 2.3-6.3 3.9-13 3.9-13-.4.1-.8.3-1.2.4-18.2 5.9-28 16-33.3 25.3-6.4 11.2-6.3 21.2-6.3 21.2s30.4 6.5 53.9-16.2c8.5-8.3 11.4-17.8 11.7-26.6.2-11.7-4.2-22.1-6.3-26.3z" fill="#569a44"/><g fill="#c32126"><path d="m66 106.2v-11.2h-11.1c-1.8 0-2.9-1.1-2.9-2.8v-12.4c0-1.8 1.2-2.8 2.9-2.8h11.1v-11.2c0-1.8 1.2-2.8 2.9-2.8h3.1v-13.7c-6-3.1-14.7-6.4-26.5-5.8-20.5 1-33.9 16-33.5 38.4.4 31 27.9 57.2 47.1 57.2 4.7 0 9.1.1 12.1-.7l.8-.2v-29.2h-3.1c-1.7 0-2.9-1.1-2.9-2.8zm-25.7 3.1c-7.8-9.9-5.4-24-5.4-24s5.2 13.1 10.5 21.2 14.5 14.5 14.5 14.5-11.8-1.7-19.6-11.7z"/><path d="m73 49.1v1c5-1.8 11.8-3 19.5-2.7 18.6.9 31.4 13.3 33.4 32.3 1.8-5 3.2-10.8 3.6-17.5-5.4-11.3-16.1-18.3-29.8-19-11.8-.5-20.7 2.8-26.7 5.9z"/><path d="m82 106.2v-13.2h13.2.1c.4 0 .7-.3.7-.7v-.1-12.4c0-.4-.3-.8-.7-.8h-13.3v-13.2c0-.4-.3-.8-.7-.8h-9.1-3.2c-.4 0-.9.4-.9.8v13.2h-13.2c-.4 0-.9.4-.9.8v12.3c0 .4.5.8.9.8h13.1v13.2c0 .4.6.8.9.8h3.2 9.1c.5.1.8-.3.8-.7z"/></g></svg>